# xmcd CD database file
#
# Track frame offsets:
#	150
#	16833
#	32397
#	48305
#	71380
#	90373
#	110054
#	123079
#	141705
#	158681
#	170899
#
# Disc length: 2520 seconds
#
# Revision: 1
# Processed by: cddbd v1.5.2PL0 Copyright (c) Steve Scherf et al.
# Submitted via: CDex 1.51
#
DISCID=8a09d60b
DTITLE=Ray Wylie Hubbard - GROWL
DYEAR=2003
DGENRE=Americana
TTITLE0=The Knives Of Spain
TTITLE1=No Lie
TTITLE2=Name Droppin'
TTITLE3=Purgatory Road
TTITLE4=Bones
TTITLE5=Preacher
TTITLE6=Rooster
TTITLE7=Rock-N-Roll Is A Vicious Game
TTITLE8=Stolen Horses
TTITLE9=Little Mama
TTITLE10=Screw You, We're From Texas
EXTD=YEAR: 2003
EXTT0=
EXTT1=
EXTT2=
EXTT3=
EXTT4=
EXTT5=
EXTT6=
EXTT7=
EXTT8=
EXTT9=
EXTT10=
PLAYORDER=
